<svg xmlns="http://www.w3.org/2000/svg" viewBox="0 0 512 512" width="512" height="512">
  <!-- Gradient definitions -->
  <defs>
    <linearGradient id="bgGradient" x1="0%" y1="0%" x2="100%" y2="100%">
      <stop offset="0%" style="stop-color:#F8BBD9;stop-opacity:1" />
      <stop offset="50%" style="stop-color:#E1F5FE;stop-opacity:1" />
      <stop offset="100%" style="stop-color:#F3E5F5;stop-opacity:1" />
    </linearGradient>
    <linearGradient id="penguinGradient" x1="0%" y1="0%" x2="100%" y2="100%">
      <stop offset="0%" style="stop-color:#455A64;stop-opacity:1" />
      <stop offset="100%" style="stop-color:#263238;stop-opacity:1" />
    </linearGradient>
    <radialGradient id="bellyGradient" cx="50%" cy="40%" r="60%">
      <stop offset="0%" style="stop-color:#FFFFFF;stop-opacity:1" />
      <stop offset="100%" style="stop-color:#F5F5F5;stop-opacity:1" />
    </radialGradient>
    <linearGradient id="hatGradient" x1="0%" y1="0%" x2="100%" y2="100%">
      <stop offset="0%" style="stop-color:#B39DDB;stop-opacity:1" />
      <stop offset="100%" style="stop-color:#9575CD;stop-opacity:1" />
    </linearGradient>
  </defs>
  
  <!-- Soft background circle with gradient -->
  <circle cx="256" cy="256" r="240" fill="url(#bgGradient)" stroke="#B39DDB" stroke-width="4" opacity="0.9"/>
  
  <!-- Subtle medical cross with soft colors -->
  <rect x="220" y="180" width="72" height="18" fill="#FFCDD2" rx="9" opacity="0.8"/>
  <rect x="247" y="154" width="18" height="72" fill="#FFCDD2" rx="9" opacity="0.8"/>
  
  <!-- Enhanced penguin body with gradient -->
  <ellipse cx="256" cy="325" rx="85" ry="105" fill="url(#penguinGradient)" opacity="0.95"/>
  <ellipse cx="256" cy="325" rx="65" ry="85" fill="url(#bellyGradient)"/>
  
  <!-- Penguin head with soft gradient -->
  <ellipse cx="256" cy="200" rx="70" ry="75" fill="url(#penguinGradient)" opacity="0.95"/>
  <ellipse cx="256" cy="205" rx="50" ry="55" fill="url(#bellyGradient)"/>
  
  <!-- Soft pastel beak -->
  <polygon points="256,220 238,238 274,238" fill="#FFE0B2" stroke="#FFCC02" stroke-width="1"/>
  
  <!-- Expressive eyes with highlights -->
  <circle cx="240" cy="190" r="10" fill="#37474F"/>
  <circle cx="272" cy="190" r="10" fill="#37474F"/>
  <circle cx="242" cy="187" r="4" fill="#FFFFFF"/>
  <circle cx="274" cy="187" r="4" fill="#FFFFFF"/>
  <circle cx="244" cy="185" r="1.5" fill="#E3F2FD"/>
  <circle cx="276" cy="185" r="1.5" fill="#E3F2FD"/>
  
  <!-- Stylish doctor hat with gradient -->
  <ellipse cx="256" cy="135" rx="75" ry="18" fill="#FFFFFF" stroke="#E1BEE7" stroke-width="2"/>
  <rect x="221" y="118" width="70" height="28" fill="#FFFFFF" rx="8" stroke="#E1BEE7" stroke-width="2"/>
  <rect x="238" y="108" width="36" height="18" fill="url(#hatGradient)" rx="5"/>
  <circle cx="256" cy="117" r="3" fill="#FFFFFF"/>
  
  <!-- Elegant stethoscope -->
  <path d="M 200 285 Q 175 265 155 285 Q 135 305 155 325 Q 175 345 200 325" 
        stroke="#90A4AE" stroke-width="5" fill="none" opacity="0.9"/>
  <circle cx="155" cy="305" r="14" fill="#B0BEC5"/>
  <circle cx="155" cy="305" r="10" fill="#CFD8DC"/>
  <circle cx="155" cy="305" r="6" fill="#ECEFF1"/>
  
  <!-- Soft penguin flippers -->
  <ellipse cx="175" cy="285" rx="28" ry="50" fill="url(#penguinGradient)" transform="rotate(-25 175 285)" opacity="0.9"/>
  <ellipse cx="337" cy="285" rx="28" ry="50" fill="url(#penguinGradient)" transform="rotate(25 337 285)" opacity="0.9"/>
  
  <!-- Cute penguin feet -->
  <ellipse cx="230" cy="415" rx="22" ry="14" fill="#FFE0B2"/>
  <ellipse cx="282" cy="415" rx="22" ry="14" fill="#FFE0B2"/>
  
  <!-- Pastel medical bag -->
  <rect x="315" y="355" width="45" height="35" fill="#C8E6C9" rx="8"/>
  <rect x="320" y="348" width="35" height="10" fill="#A5D6A7" rx="5"/>
  <rect x="332" y="360" width="11" height="4" fill="#FFCDD2"/>
  <rect x="328" y="365" width="19" height="4" fill="#FFCDD2"/>
  
  <!-- Floating pastel pills -->
  <circle cx="385" cy="195" r="10" fill="#E1F5FE" stroke="#81D4FA" stroke-width="2"/>
  <circle cx="385" cy="195" r="6" fill="#B3E5FC"/>
  <circle cx="125" cy="175" r="8" fill="#FFECB3" stroke="#FFD54F" stroke-width="2"/>
  <circle cx="125" cy="175" r="5" fill="#FFF8E1"/>
  <ellipse cx="405" cy="355" rx="8" ry="12" fill="#F8BBD9" stroke="#F48FB1" stroke-width="2"/>
  <ellipse cx="405" cy="355" rx="5" ry="9" fill="#FCE4EC"/>
  
  <!-- Soft heart symbol -->
  <path d="M 115 355 C 110 345, 100 345, 100 355 C 100 345, 90 345, 95 355 C 100 370, 115 380, 115 380 C 115 380, 130 370, 135 355 C 140 345, 130 345, 130 355 C 130 345, 120 345, 115 355 Z" 
        fill="#FFCDD2" stroke="#F8BBD9" stroke-width="1"/>
  
  <!-- Subtle sparkles for magic touch -->
  <circle cx="350" cy="150" r="2" fill="#E1BEE7" opacity="0.8"/>
  <circle cx="160" cy="140" r="1.5" fill="#B3E5FC" opacity="0.8"/>
  <circle cx="380" cy="280" r="2.5" fill="#C8E6C9" opacity="0.8"/>
  <circle cx="140" cy="320" r="1.8" fill="#FFECB3" opacity="0.8"/>
</svg>